<?xml version="1.0" encoding="utf-8"?>
<!-- Generator: Adobe Illustrator 24.0.2, SVG Export Plug-In . SVG Version: 6.00 Build 0)  -->
<svg version="1.1" id="레이어_1" xmlns="http://www.w3.org/2000/svg" xmlns:xlink="http://www.w3.org/1999/xlink" x="0px"
	 y="0px" viewBox="0 0 600 84" style="enable-background:new 0 0 600 84;" xml:space="preserve">
<style type="text/css">
	.st0{fill:#FFFFFF;}
</style>
<g>
	<path class="st0" d="M138.2,38.5l-7.1-0.4l-0.2,3.5c-2.5-1.6-5.5-2.6-8.8-2.6c-4.1,0-7.9,1.5-10.7,4c-2.8,2.5-4.6,6.1-4.6,10.1
		c0,4,1.8,7.6,4.6,10.1c2.8,2.5,6.6,4,10.7,4c2.7,0,5.2-0.6,7.4-1.8l-0.2,2.9l7.1,0.4L138.2,38.5z M128,58.1
		c-1.4,1.3-3.5,2.2-5.9,2.2c-2.3,0-4.4-0.9-5.9-2.2c-1.4-1.3-2.2-3-2.2-4.8c0-1.8,0.8-3.5,2.2-4.8c1.4-1.3,3.5-2.2,5.9-2.2l0,0
		c2.3,0,4.4,0.9,5.9,2.2c1.5,1.3,2.2,3,2.2,4.8C130.2,55.1,129.4,56.7,128,58.1z"/>
	<path class="st0" d="M99.3,38.8c-2.8-2.5-6.6-4.1-10.8-4.1c-3.6,0-7,1.2-9.6,3.2l-1.3-11.5l-7.1,0.8l4.5,40.6l7.1-0.8l-0.6-5.2
		c2.1,1,4.5,1.5,7,1.5c4.1,0,7.9-1.5,10.8-4.1c2.8-2.5,4.6-6.2,4.6-10.2C104,45,102.1,41.4,99.3,38.8z M94.5,54
		c-1.5,1.3-3.6,2.2-5.9,2.2s-4.5-0.9-5.9-2.2c-1.5-1.3-2.3-3.1-2.3-4.9c0-1.9,0.8-3.6,2.3-4.9c1.5-1.3,3.6-2.2,5.9-2.2
		s4.5,0.9,5.9,2.2c1.5,1.3,2.3,3.1,2.3,4.9C96.8,50.9,96,52.6,94.5,54z"/>
	<path class="st0" d="M397.2,42.4c-2.4-2.4-5.7-3.9-9.4-4.2c-0.4,0-0.8,0-1.2,0c-3.6,0-7,1.3-9.5,3.4c-2.6,2.2-4.4,5.3-4.6,8.9l0,0
		c0,0.3,0,0.6,0,1c0,3.6,1.5,6.9,4,9.3c2.4,2.4,5.7,3.9,9.4,4.2c0.4,0,0.8,0,1.2,0c3.6,0,7-1.3,9.5-3.4s4.4-5.3,4.6-8.9
		c0-0.3,0-0.6,0-1C401.1,48.1,399.6,44.8,397.2,42.4z M394,52c-0.1,1.7-1,3.1-2.3,4.1s-3,1.6-4.8,1.6c-0.2,0-0.4,0-0.6,0
		c-1.9-0.1-3.5-0.8-4.7-2c-1.2-1.1-2-2.6-2-4.3c0-0.2,0-0.3,0-0.4l0,0c0.1-1.7,1-3.1,2.3-4.1s3-1.6,4.8-1.6c0.2,0,0.4,0,0.6,0
		c1.9,0.1,3.5,0.8,4.7,2c1.2,1.1,2,2.6,2,4.3C394,51.7,394,51.9,394,52z"/>
	<path class="st0" d="M428.8,44.1c-2.3-2.4-5.4-4-9-4.5c-0.6-0.1-1.3-0.1-1.9-0.1c-2.5,0-4.8,0.6-6.9,1.7l0.1-10l-7.1-0.1l-0.5,37.3
		l7.1,0.1l0-4.2c1.7,1,3.7,1.7,5.8,1.9c0.6,0.1,1.3,0.1,1.9,0.1h0c3.5,0,6.7-1.2,9.2-3.2c2.5-2,4.3-5,4.8-8.4c0.1-0.5,0.1-1,0.1-1.6
		C432.5,49.7,431,46.5,428.8,44.1z M425.3,53.9c-0.2,1.5-0.9,2.8-2.2,3.7c-1.2,1-2.9,1.6-4.7,1.6c-0.3,0-0.7,0-1-0.1
		c-1.9-0.2-3.6-1.1-4.7-2.3c-1.1-1.2-1.7-2.6-1.7-4.1c0-0.2,0-0.4,0-0.7l-0.1,0l0,0l0.1,0c0.2-1.5,0.9-2.8,2.1-3.7
		c1.2-1,2.9-1.6,4.7-1.6c0.3,0,0.7,0,1,0.1c1.9,0.2,3.6,1.1,4.7,2.3c1.1,1.2,1.7,2.6,1.7,4.1C425.3,53.4,425.3,53.6,425.3,53.9z"/>
	<g>
		<g>
			<path class="st0" d="M466.3,29.1c0,2.1,1.9,3.7,4.2,3.6c2.3-0.1,4.1-1.8,4-3.8s-1.9-3.7-4.2-3.6C468.1,25.3,466.3,27,466.3,29.1z
				"/>
		</g>
	</g>
	<path class="st0" d="M459.2,37.6c-2.3-2.4-5.6-4-9.2-4.3c-0.5,0-1-0.1-1.6-0.1c-2.6,0-5.1,0.7-7.2,1.8l-0.1-10l-7.1,0.1l0.4,37.3
		l7.1-0.1l0-4.2c1.8,1,3.7,1.6,5.8,1.8c0.5,0,1,0.1,1.6,0.1c3.5,0,6.8-1.2,9.4-3.3c2.5-2.1,4.4-5.1,4.7-8.6c0-0.4,0.1-0.8,0.1-1.3
		C463,43.3,461.5,40,459.2,37.6z M455.8,47.3c-0.2,1.5-0.9,2.8-2.1,3.8c-1.2,1-2.9,1.7-4.8,1.7c-0.3,0-0.6,0-0.9,0
		c-2-0.2-3.6-1.1-4.8-2.2c-1.2-1.2-1.8-2.6-1.8-4.1c0-0.2,0-0.4,0-0.5l-0.1,0l0,0l0.1,0c0.2-1.5,0.9-2.8,2.1-3.8
		c1.2-1,2.9-1.7,4.8-1.7c0.3,0,0.6,0,0.9,0c2,0.2,3.6,1.1,4.8,2.2c1.2,1.2,1.8,2.6,1.8,4.1C455.8,47,455.8,47.1,455.8,47.3z"/>
	<g>
		<g>
			<polygon class="st0" points="466,59 466.7,35.2 473.9,35.4 473.2,59.2 			"/>
		</g>
	</g>
	<path class="st0" d="M199.9,34.4c2.3-0.2,4-2,3.8-4c-0.2-2-2.1-3.6-4.4-3.4s-4,2-3.8,4C195.7,33,197.6,34.6,199.9,34.4z
		 M203.4,36.9l-7.1,0.1l0.4,27.6l7.1-0.1L203.4,36.9z"/>
	<polygon class="st0" points="181.9,45.1 190.3,36.9 185.2,31.8 169.8,47 170.5,22.1 163.3,21.9 162.1,64.5 176.8,50.1 185.6,61.3 
		191.2,56.8 	"/>
	<polygon class="st0" points="232.1,37.5 231.6,52.4 212.2,32.3 211,64.3 218.2,64.6 218.7,49.3 238.2,69.5 239.3,37.7 	"/>
	<polygon class="st0" points="498.3,34 498.2,47.4 479.5,26.2 479.5,59 486.6,59.1 486.6,45 505.4,66.2 505.4,34 	"/>
	<path class="st0" d="M373.9,32.9L373.9,32.9c-0.3,0-3.9,0.2-8,2.2c-0.6,0.3-1.1,0.6-1.7,1l-0.1-4.1l-7.1,0.2l1,34l7.1-0.2
		l-0.5-16.6l0,0c0-0.1,0-0.2,0-0.3c0-2.4,0.6-3.8,1.4-5c1.2-1.7,3.2-2.8,5-3.4c0.9-0.3,1.8-0.5,2.4-0.5c0.3,0,0.5-0.1,0.7-0.1
		c0.1,0,0.1,0,0.1,0l0,0L373.9,32.9z"/>
	<g>
		<g>
			<polygon class="st0" points="262.5,9.9 264.7,75.9 258.9,75.8 244.8,13.2 			"/>
		</g>
	</g>
	<g>
		<g>
			<path class="st0" d="M265.7,6.5l0.8,15c0,0,16.3-1,16.6,8.7c0.3,9.7-13.1,10.9-13.1,10.9l0.4,8.3c0,0,14.7,0.1,15,9.7
				c0.3,9.6-16.6,12.4-16.6,12.4l-0.3,6.1c0,0,29.9-2.5,29.7-21.3c-0.1-13.1-12.1-13.9-12.1-13.9s10.8-5.3,10.5-16.2
				C296.4,15.3,289.4,6.5,265.7,6.5z"/>
		</g>
	</g>
	<g>
		<g>
			<polygon class="st0" points="305.6,6.5 305,77 313.7,77.1 321,7.2 			"/>
		</g>
	</g>
	<g>
		<g>
			<path class="st0" d="M323.9,8.9l-1.5,15.6c0,0,12.5,2.5,12,10.8s-13.9,12.2-13.9,12.2l-1.2,8.4l13,19.6l7.2-1.2l-9.1-21.3
				c0,0,16-4.2,18-22C350.4,13.3,323.9,8.9,323.9,8.9z"/>
		</g>
	</g>
	<g>
		<g>
			<path class="st0" d="M145.9,68.6l-2.8-4.6l5.8-3.6c0,0,2.5-1.3,1.1-4.2c-2.4-5.1-5.6-10.9-5.6-10.9s-2.8-6,1.9-8.9l9-5.5l2.6,4.8
				l-5.8,3.8c-1.2,1-1.9,2-1.2,3.5c1.8,3.5,5.5,10.9,5.5,10.9s4,6.2-1.2,9.2L145.9,68.6z"/>
		</g>
	</g>
	<g>
		<g>
			<path class="st0" d="M511.6,68.6l-2.8-4.6l5.8-3.6c0,0,2.5-1.3,1.1-4.2c-2.5-5.1-5.6-10.9-5.6-10.9s-2.8-6,2-8.9l9-5.5l2.6,4.8
				l-5.8,3.8c-1.2,1-2,2-1.2,3.5c1.8,3.5,5.5,10.9,5.5,10.9s4,6.2-1.2,9.2L511.6,68.6z"/>
		</g>
	</g>
	<path class="st0" d="M524.4,28.9l-1.2,1.6l5.9,3.4l0.1-0.2c0-0.1,0-0.3,0.1-0.7c0.1-1,0.2-3,0.2-3l0-0.2L524.4,28.9z"/>
</g>
</svg>
