<?xml version="1.0" encoding="utf-8"?>
<!-- Generator: Adobe Illustrator 24.0.2, SVG Export Plug-In . SVG Version: 6.00 Build 0)  -->
<svg version="1.1" id="레이어_1" xmlns="http://www.w3.org/2000/svg" xmlns:xlink="http://www.w3.org/1999/xlink" x="0px"
	 y="0px" viewBox="0 0 600 84" style="enable-background:new 0 0 600 84;" xml:space="preserve">
<style type="text/css">
	.st0{fill:#0057A8;}
	.st1{fill:#DB5B99;}
</style>
<g>
	<path class="st0" d="M138.24,38.53l-7.14-0.4l-0.2,3.53c-2.5-1.63-5.53-2.56-8.76-2.56c-4.1,0-7.88,1.5-10.66,4.02
		c-2.78,2.5-4.6,6.12-4.6,10.12c0,4.01,1.82,7.62,4.6,10.12c2.78,2.52,6.56,4.02,10.66,4.02c2.68,0,5.21-0.64,7.42-1.78l-0.16,2.91
		l7.14,0.4L138.24,38.53z M128,58.05c-1.44,1.31-3.52,2.17-5.86,2.17c-2.35,0-4.42-0.86-5.87-2.17c-1.45-1.32-2.24-2.99-2.24-4.82
		c0-1.83,0.8-3.5,2.24-4.82c1.44-1.31,3.51-2.17,5.86-2.17h0c2.35,0,4.42,0.86,5.86,2.17c1.45,1.32,2.24,2.99,2.24,4.82
		C130.24,55.06,129.45,56.73,128,58.05z"/>
	<path class="st0" d="M99.33,38.82c-2.81-2.55-6.61-4.07-10.76-4.07c-3.62,0-6.97,1.16-9.64,3.15l-1.28-11.48l-7.11,0.79l4.53,40.56
		l7.11-0.79l-0.58-5.18c2.11,0.99,4.47,1.55,6.97,1.55c4.14,0,7.95-1.52,10.76-4.07c2.8-2.53,4.64-6.19,4.63-10.23
		C103.97,45.01,102.14,41.36,99.33,38.82z M94.52,53.99c-1.47,1.33-3.57,2.21-5.95,2.21c-2.38,0-4.48-0.88-5.95-2.21
		c-1.47-1.35-2.28-3.06-2.29-4.94c0-1.88,0.82-3.59,2.29-4.94c1.47-1.33,3.57-2.21,5.95-2.21c2.38,0,4.48,0.88,5.95,2.21
		c1.47,1.35,2.28,3.06,2.29,4.94C96.81,50.93,95.99,52.64,94.52,53.99z"/>
	<path class="st0" d="M397.16,42.42c-2.41-2.39-5.72-3.94-9.41-4.22c-0.39-0.03-0.78-0.04-1.17-0.04c-3.61,0-6.97,1.26-9.54,3.42
		c-2.56,2.15-4.35,5.3-4.62,8.88l0,0c-0.02,0.32-0.04,0.63-0.04,0.95c0,3.59,1.54,6.87,3.95,9.25c2.41,2.39,5.72,3.94,9.41,4.22
		c0.4,0.03,0.79,0.04,1.17,0.04c3.61,0,6.97-1.26,9.54-3.42c2.57-2.16,4.35-5.3,4.62-8.88c0.02-0.32,0.04-0.64,0.04-0.95
		C401.12,48.08,399.57,44.8,397.16,42.42z M393.95,52.04c-0.13,1.66-1.03,3.12-2.32,4.12c-1.29,1-2.98,1.59-4.79,1.59
		c-0.19,0-0.39-0.01-0.59-0.02c-1.85-0.13-3.51-0.85-4.72-1.96c-1.21-1.1-1.98-2.63-1.98-4.29c0-0.15,0.01-0.29,0.02-0.44l0,0
		c0.13-1.66,1.03-3.12,2.32-4.12c1.29-1,2.98-1.59,4.79-1.59c0.19,0,0.39,0.01,0.59,0.02c1.85,0.13,3.51,0.85,4.72,1.96
		c1.21,1.1,1.98,2.63,1.98,4.29C393.96,51.74,393.96,51.89,393.95,52.04z"/>
	<path class="st0" d="M428.76,44.14c-2.28-2.39-5.42-4.02-8.99-4.46c-0.64-0.08-1.29-0.12-1.93-0.12c-2.47,0-4.82,0.59-6.89,1.67
		l0.13-10.02l-7.15-0.09l-0.48,37.28l7.15,0.09l0.05-4.22c1.72,1.01,3.69,1.69,5.8,1.95c0.64,0.08,1.28,0.12,1.9,0.12h0.02
		c3.45,0,6.69-1.16,9.22-3.19c2.52-2.02,4.34-4.99,4.77-8.43c0.06-0.52,0.1-1.04,0.1-1.56C432.47,49.71,431.04,46.52,428.76,44.14z
		 M425.28,53.85c-0.19,1.47-0.94,2.75-2.16,3.74c-1.22,0.98-2.89,1.61-4.73,1.61c-0.34,0-0.69-0.02-1.04-0.06
		c-1.94-0.24-3.57-1.12-4.7-2.3c-1.13-1.19-1.73-2.63-1.73-4.09c0-0.22,0.01-0.44,0.04-0.67l-0.14-0.02v0l0.14,0.02
		c0.19-1.48,0.94-2.75,2.15-3.74c1.22-0.98,2.89-1.61,4.73-1.61c0.34,0,0.69,0.02,1.04,0.07c1.94,0.24,3.57,1.12,4.7,2.3
		c1.13,1.19,1.73,2.63,1.73,4.09C425.32,53.39,425.3,53.62,425.28,53.85z"/>
	<g>
		<g>
			<path class="st0" d="M466.32,29.09c0.05,2.06,1.94,3.68,4.2,3.62c2.27-0.06,4.06-1.78,4.01-3.84c-0.05-2.06-1.94-3.68-4.21-3.62
				C468.06,25.31,466.26,27.03,466.32,29.09z"/>
		</g>
	</g>
	<path class="st0" d="M459.16,37.64c-2.34-2.39-5.56-3.98-9.19-4.35c-0.53-0.05-1.05-0.08-1.57-0.08c-2.6,0-5.07,0.66-7.21,1.83
		l-0.1-10.02l-7.15,0.07l0.38,37.28l7.15-0.07l-0.04-4.22c1.75,0.97,3.73,1.6,5.84,1.82c0.53,0.05,1.05,0.08,1.57,0.08
		c3.53,0,6.83-1.2,9.37-3.3c2.54-2.08,4.35-5.13,4.7-8.64c0.04-0.43,0.06-0.85,0.06-1.27C462.99,43.26,461.5,40.02,459.16,37.64z
		 M455.81,47.32c-0.16,1.5-0.9,2.82-2.13,3.84c-1.23,1.01-2.93,1.67-4.83,1.67c-0.28,0-0.56-0.01-0.85-0.04
		c-1.97-0.2-3.64-1.06-4.8-2.24c-1.16-1.19-1.78-2.64-1.78-4.13c0-0.18,0.01-0.36,0.03-0.54l-0.14-0.01v0l0.14,0.01
		c0.16-1.5,0.9-2.82,2.13-3.84c1.23-1.01,2.93-1.67,4.83-1.67c0.28,0,0.56,0.01,0.85,0.04c1.97,0.2,3.64,1.06,4.8,2.24
		c1.16,1.19,1.78,2.63,1.78,4.13C455.83,46.96,455.82,47.14,455.81,47.32z"/>
	<g>
		<g>
			<polygon class="st0" points="466.05,59.03 466.71,35.21 473.86,35.41 473.2,59.23 466.05,59.03 			"/>
		</g>
	</g>
	<path class="st0" d="M199.9,34.38c2.26-0.18,3.96-2,3.79-4.05c-0.16-2.05-2.13-3.57-4.39-3.39c-2.26,0.18-3.96,1.99-3.79,4.05
		C195.67,33.04,197.64,34.56,199.9,34.38z M203.38,36.93l-7.15,0.11l0.41,27.56l7.15-0.11L203.38,36.93z"/>
	<polygon class="st0" points="181.92,45.05 190.25,36.87 185.23,31.77 169.79,46.95 170.49,22.12 163.34,21.91 162.13,64.5 
		176.79,50.1 185.56,61.25 191.18,56.83 	"/>
	<polygon class="st0" points="232.12,37.47 231.61,52.37 212.16,32.27 211.04,64.31 218.19,64.56 218.72,49.33 238.19,69.45 
		239.26,37.72 	"/>
	<polygon class="st0" points="498.28,34.03 498.24,47.38 479.52,26.17 479.45,59.04 486.6,59.05 486.63,45.03 505.35,66.24 
		505.43,34.04 	"/>
	<path class="st0" d="M373.86,32.87L373.86,32.87c-0.28,0.03-3.92,0.15-7.96,2.17c-0.57,0.29-1.14,0.62-1.71,1l-0.13-4.12
		l-7.15,0.22l1.04,34l7.15-0.22l-0.5-16.58l0,0c0-0.07,0-0.16,0-0.28c0.01-2.38,0.6-3.85,1.39-5.01c1.17-1.71,3.16-2.79,5.02-3.38
		c0.91-0.29,1.76-0.46,2.35-0.55c0.29-0.04,0.53-0.07,0.67-0.08c0.07-0.01,0.12-0.01,0.15-0.01h0L373.86,32.87z"/>
	<g>
		<g>
			<polygon class="st0" points="262.45,9.92 264.68,75.92 258.9,75.79 244.83,13.21 			"/>
		</g>
	</g>
	<g>
		<g>
			<path class="st1" d="M265.73,6.5l0.79,14.99c0,0,16.3-1.05,16.57,8.68c0.26,9.73-13.15,10.91-13.15,10.91l0.39,8.28
				c0,0,14.73,0.13,14.99,9.73c0.26,9.6-16.57,12.36-16.57,12.36l-0.26,6.05c0,0,29.9-2.49,29.71-21.3
				c-0.13-13.15-12.1-13.94-12.1-13.94S296.9,37,296.63,26.09C296.37,15.31,289.4,6.5,265.73,6.5z"/>
		</g>
	</g>
	<g>
		<g>
			<polygon class="st1" points="305.57,6.5 305.05,76.97 313.72,77.1 320.96,7.16 			"/>
		</g>
	</g>
	<g>
		<g>
			<path class="st0" d="M323.85,8.87l-1.45,15.65c0,0,12.49,2.5,11.96,10.78c-0.53,8.28-13.94,12.23-13.94,12.23l-1.18,8.42
				l13.02,19.59l7.23-1.18l-9.07-21.3c0,0,16.04-4.21,18.01-21.96C350.41,13.34,323.85,8.87,323.85,8.87z"/>
		</g>
	</g>
	<g>
		<g>
			<path class="st0" d="M145.88,68.64L143.07,64l5.84-3.57c0,0,2.49-1.3,1.08-4.22c-2.45-5.1-5.62-10.92-5.62-10.92
				s-2.81-6.05,1.95-8.86l8.97-5.51l2.59,4.76l-5.84,3.78c-1.19,0.97-1.95,2.03-1.19,3.46c1.84,3.46,5.51,10.92,5.51,10.92
				s4,6.16-1.19,9.19L145.88,68.64z"/>
		</g>
	</g>
	<g>
		<g>
			<path class="st0" d="M511.6,68.64L508.79,64l5.84-3.57c0,0,2.49-1.3,1.08-4.22c-2.45-5.1-5.62-10.92-5.62-10.92
				s-2.81-6.05,1.95-8.86l8.97-5.51l2.59,4.76l-5.84,3.78c-1.19,0.97-1.95,2.03-1.19,3.46c1.84,3.46,5.51,10.92,5.51,10.92
				s4,6.16-1.19,9.19L511.6,68.64z"/>
		</g>
	</g>
	<path class="st0" d="M524.36,28.88l-1.21,1.58l5.89,3.36l0.08-0.24c0.03-0.11,0.04-0.3,0.07-0.67c0.09-1.04,0.24-3.03,0.24-3.03
		l0.01-0.19L524.36,28.88z"/>
</g>
</svg>
